<svg xmlns="http://www.w3.org/2000/svg" xmlns:xlink="http://www.w3.org/1999/xlink" width="22" height="22" viewBox="0 0 22 22"><defs><path id="uxdba" d="M205 2069h10a5 5 0 0 1 5 5v10a5 5 0 0 1-5 5h-10a5 5 0 0 1-5-5v-10a5 5 0 0 1 5-5zm10.4 6.36a.37.37 0 0 0-.53 0l-5.58 5.57a.37.37 0 0 1-.53 0l-2.45-2.5a.37.37 0 0 0-.26-.1c-.1 0-.2.03-.27.1l-1.08.98a.37.37 0 0 0-.11.26c0 .1.04.2.11.27l2.47 2.6.53.53 1.06 1.07c.14.15.38.15.53 0l7.17-7.17a.38.38 0 0 0 0-.54z"/></defs><g><g transform="translate(-199 -2068)"><use fill="#d7dcde" xlink:href="#uxdba"/></g></g></svg>